<svg xmlns="http://www.w3.org/2000/svg" version="1.1" xmlns:xlink="http://www.w3.org/1999/xlink" width="512" height="512" x="0" y="0" viewBox="0 0 24 24" style="enable-background:new 0 0 512 512" xml:space="preserve" class=""><g><path d="M5.452 22h9.096c1.748 0 3.182-1.312 3.406-3h.594A3.456 3.456 0 0 0 22 15.548V5.452A3.456 3.456 0 0 0 18.548 2H9.452A3.456 3.456 0 0 0 6 5.452V6h-.548A3.456 3.456 0 0 0 2 9.452v9.096A3.456 3.456 0 0 0 5.452 22zM8 5.452C8 4.652 8.651 4 9.452 4h9.096c.8 0 1.452.651 1.452 1.452v10.096c0 .8-.651 1.452-1.452 1.452H18V9.452A3.456 3.456 0 0 0 14.548 6H8zm-4 4C4 8.652 4.651 8 5.452 8h9.096c.8 0 1.452.651 1.452 1.452v9.096c0 .8-.651 1.452-1.452 1.452H5.452C4.652 20 4 19.349 4 18.548z" fill="#ff7800" opacity="1" data-original="#000000" class=""></path></g></svg>