<svg xmlns="http://www.w3.org/2000/svg" version="1.1" xmlns:xlink="http://www.w3.org/1999/xlink" width="512" height="512" x="0" y="0" viewBox="0 0 66 66" style="enable-background:new 0 0 512 512" xml:space="preserve" class=""><g><path d="M54.8 37c-.6 0-1-.4-1-1v-9.7c0-.6.4-1 1-1s1 .4 1 1V36c0 .6-.4 1-1 1z" fill="#000000" opacity="1" data-original="#000000" class=""></path><path d="M60 65H6c-2.8 0-5-2.2-5-5V6c0-2.8 2.2-5 5-5h54c2.8 0 5 2.2 5 5v54c0 2.8-2.2 5-5 5zM6 3C4.3 3 3 4.3 3 6v54c0 1.7 1.3 3 3 3h54c1.7 0 3-1.3 3-3V6c0-1.7-1.3-3-3-3z" fill="#000000" opacity="1" data-original="#000000" class=""></path><path d="M64 14.6H2c-.6 0-1-.4-1-1s.4-1 1-1h62c.6 0 1 .4 1 1s-.4 1-1 1zM48.7 11.2H8.3c-.6 0-1-.4-1-1V5.6c0-.6.4-1 1-1h40.4c.6 0 1 .4 1 1v4.6c0 .6-.4 1-1 1zm-39.4-2h38.4V6.6H9.3zM57.7 11c-.3 0-.5-.1-.7-.3l-4.4-4.4c-.4-.4-.4-1 0-1.4s1-.4 1.4 0l4.4 4.4c.4.4.4 1 0 1.4-.2.2-.4.3-.7.3z" fill="#000000" opacity="1" data-original="#000000" class=""></path><path d="M53.3 11c-.3 0-.5-.1-.7-.3-.4-.4-.4-1 0-1.4L57 4.9c.4-.4 1-.4 1.4 0s.4 1 0 1.4L54 10.7c-.2.2-.4.3-.7.3zM17.8 38c-.6 0-1-.4-1-1v-2c0-.6.4-1 1-1s1 .4 1 1v2c0 .6-.4 1-1 1z" fill="#000000" opacity="1" data-original="#000000" class=""></path><path d="M21.2 38h-15c-.6 0-1-.4-1-1v-4.2c0-2.4 1.6-4.5 3.9-5.1.8-.2 1.4-1 1.4-1.7v-.9c0-.6.4-1 1-1s1 .4 1 1v.9c0 1.7-1.2 3.3-2.9 3.7-1.4.4-2.4 1.7-2.4 3.1V36h13v-3.3c0-1.5-1-2.8-2.5-3.1-1.6-.4-2.8-2-2.8-3.7V25c0-.6.4-1 1-1s1 .4 1 1v.9c0 .8.6 1.5 1.3 1.7 2.3.6 4 2.7 4 5.1V37c0 .6-.4 1-1 1z" fill="#000000" opacity="1" data-original="#000000" class=""></path><path d="M9.6 38c-.6 0-1-.4-1-1v-2c0-.6.4-1 1-1s1 .4 1 1v2c0 .6-.4 1-1 1zM13.7 32c-1.5 0-2.9-.9-3.9-2.3l-.5-.8c-.3-.5-.1-1.1.3-1.4s1.1-.2 1.4.3l.5.8c.6.9 1.4 1.4 2.2 1.4s1.6-.5 2.2-1.4l.4-.7c.3-.5.9-.6 1.4-.4s.6.9.4 1.4l-.4.7c-1.1 1.5-2.5 2.4-4 2.4zM13.7 27.1c-2.7 0-4.8-3.1-4.8-5.7s2.2-4.8 4.8-4.8 4.8 2.2 4.8 4.8-2.1 5.7-4.8 5.7zm0-8.5c-1.5 0-2.8 1.3-2.8 2.8 0 1.6 1.4 3.7 2.8 3.7s2.8-2.1 2.8-3.7c0-1.5-1.3-2.8-2.8-2.8zM25.2 65c-.6 0-1-.4-1-1V13.6c0-.6.4-1 1-1s1 .4 1 1V64c0 .6-.4 1-1 1z" fill="#000000" opacity="1" data-original="#000000" class=""></path><path d="M25.2 38H2.5c-.6 0-1-.4-1-1s.4-1 1-1h22.7c.6 0 1 .4 1 1s-.4 1-1 1zM21.2 43.7h-8.4c-.6 0-1-.4-1-1s.4-1 1-1h8.4c.6 0 1 .4 1 1s-.4 1-1 1zM7.6 43.7H6.2c-.6 0-1-.4-1-1s.4-1 1-1h1.4c.6 0 1 .4 1 1s-.4 1-1 1zM21.2 48.9h-1.3c-.6 0-1-.4-1-1s.4-1 1-1h1.3c.6 0 1 .4 1 1s-.4 1-1 1zM15.1 48.9H6.2c-.6 0-1-.4-1-1s.4-1 1-1h8.9c.6 0 1 .4 1 1s-.4 1-1 1zM21.2 54.1h-8.9c-.6 0-1-.4-1-1s.4-1 1-1h8.9c.6 0 1 .4 1 1s-.4 1-1 1zM7.6 54.1H6.2c-.6 0-1-.4-1-1s.4-1 1-1h1.4c.6 0 1 .4 1 1s-.4 1-1 1zM21.2 59.2h-1.3c-.6 0-1-.4-1-1s.4-1 1-1h1.3c.6 0 1 .4 1 1s-.4 1-1 1zM15.3 59.2H6.2c-.6 0-1-.4-1-1s.4-1 1-1h9.1c.6 0 1 .4 1 1s-.4 1-1 1z" fill="#000000" opacity="1" data-original="#000000" class=""></path><path d="M12.3 45.7H8.4c-.6 0-1-.4-1-1v-3.9c0-.6.4-1 1-1h3.9c.6 0 1 .4 1 1v3.9c0 .6-.4 1-1 1zm-2.9-2h1.9v-1.9H9.4zM19.2 50.9h-3.9c-.6 0-1-.4-1-1V46c0-.6.4-1 1-1h3.9c.6 0 1 .4 1 1v3.9c0 .6-.4 1-1 1zm-2.9-2h1.9V47h-1.9zM12.1 56H8.2c-.6 0-1-.4-1-1v-3.9c0-.6.4-1 1-1h3.9c.6 0 1 .4 1 1V55c0 .6-.4 1-1 1zm-2.9-2h1.9v-1.9H9.2zM19.5 61.2h-3.9c-.6 0-1-.4-1-1v-3.9c0-.6.4-1 1-1h3.9c.6 0 1 .4 1 1v3.9c0 .6-.4 1-1 1zm-2.9-2h1.9v-1.9h-1.9zM58.4 37h-26c-.6 0-1-.4-1-1V17.6c0-.6.4-1 1-1s1 .4 1 1V35h25c.6 0 1 .4 1 1s-.4 1-1 1z" fill="#000000" opacity="1" data-original="#000000" class=""></path><path d="M38 37c-.6 0-1-.4-1-1v-2.7c0-.6.4-1 1-1s1 .4 1 1V36c0 .6-.4 1-1 1zM43.6 37c-.6 0-1-.4-1-1v-4.7c0-.6.4-1 1-1s1 .4 1 1V36c0 .6-.4 1-1 1zM49.2 37c-.6 0-1-.4-1-1v-6.7c0-.6.4-1 1-1s1 .4 1 1V36c0 .6-.4 1-1 1zM37.1 29.3c-.4 0-.8-.2-.9-.6-.2-.5.1-1.1.6-1.3L43 25c.3-.1.6-.1.9.1l1.3.9 2.2-2.9c.2-.3.7-.5 1.1-.4l2 .6 4-3.1c.4-.3 1.1-.3 1.4.2.3.4.3 1.1-.2 1.4l-4.4 3.4c-.2.2-.6.3-.9.2l-1.8-.5-2.4 3.2c-.3.4-.9.5-1.4.2L43.2 27l-5.7 2.2c-.2.1-.3.1-.4.1zM51.4 61.3c-.3 0-.5-.1-.7-.3-.4-.4-.4-1 0-1.4 1.6-1.6 2.6-3.8 2.6-6.2 0-4.7-3.9-8.6-8.6-8.6s-8.6 3.9-8.6 8.6c0 2.4.9 4.6 2.6 6.2.4.4.4 1 0 1.4s-1 .4-1.4 0c-2-1.9-3.2-4.7-3.2-7.6 0-5.8 4.8-10.6 10.6-10.6s10.6 4.8 10.6 10.6c0 2.9-1.2 5.7-3.2 7.6-.2.2-.5.3-.7.3z" fill="#000000" opacity="1" data-original="#000000" class=""></path><path d="M44.7 47.7c-.6 0-1-.4-1-1v-2.1c0-.6.4-1 1-1s1 .4 1 1v2.1c0 .6-.4 1-1 1zM37.6 54.8h-2.1c-.6 0-1-.4-1-1s.4-1 1-1h2.1c.6 0 1 .4 1 1s-.4 1-1 1zM53.9 54.8h-2.2c-.6 0-1-.4-1-1s.4-1 1-1h2.2c.6 0 1 .4 1 1s-.4 1-1 1zM39.7 49.8c-.3 0-.5-.1-.7-.3L37.5 48c-.4-.4-.4-1 0-1.4s1-.4 1.4 0l1.5 1.5c.4.4.4 1 0 1.4-.2.2-.4.3-.7.3zM51.2 61.3c-.3 0-.5-.1-.7-.3L49 59.5c-.4-.4-.4-1 0-1.4s1-.4 1.4 0l1.5 1.5c.4.4.4 1 0 1.4-.2.2-.4.3-.7.3zM38.2 61.3c-.3 0-.5-.1-.7-.3-.4-.4-.4-1 0-1.4l1.5-1.5c.4-.4 1-.4 1.4 0s.4 1 0 1.4L38.9 61c-.2.2-.4.3-.7.3zM49.7 49.8c-.3 0-.5-.1-.7-.3-.4-.4-.4-1 0-1.4l1.5-1.5c.4-.4 1-.4 1.4 0s.4 1 0 1.4l-1.5 1.5c-.2.2-.4.3-.7.3z" fill="#000000" opacity="1" data-original="#000000" class=""></path><path d="M52.8 65H36.6c-.2 0-.4-.1-.6-.2-3.5-2.7-5.6-6.9-5.6-11.3 0-7.9 6.4-14.3 14.3-14.3S59 45.6 59 53.5c0 4.5-2 8.6-5.6 11.3-.2.1-.4.2-.6.2zm-15.9-2h15.5c2.9-2.3 4.5-5.7 4.5-9.5 0-6.8-5.5-12.3-12.3-12.3s-12.3 5.5-12.3 12.3c.1 3.6 1.8 7.2 4.6 9.5z" fill="#000000" opacity="1" data-original="#000000" class=""></path><path d="M45.1 61.3c-.4 0-.8-.1-1.1-.2-.8-.2-1.5-.8-1.9-1.5-.3-.7-.4-1.4-.2-2 .3-.9 3-4.7 4.1-6.3.2-.3.7-.5 1.1-.4s.7.5.7.9c.2 2.5.4 6.7.1 7.7-.4 1.2-1.5 1.8-2.8 1.8zm.8-6.5c-1.1 1.6-2.1 3-2.2 3.4 0 .1 0 .3.1.4.1.3.4.5.7.6.7.2 1.3 0 1.4-.3.1-.4.1-2.1 0-4.1z" fill="#000000" opacity="1" data-original="#000000" class=""></path></g></svg>